<svg id="logo-2-landscape" xmlns="http://www.w3.org/2000/svg" width="269.558" height="112.142" viewBox="0 0 269.558 112.142">
  <g id="logo-2-landscape-2" data-name="logo-2-landscape">
    <rect id="Rectangle_16" data-name="Rectangle 16" width="269.558" height="112.142" fill="none"/>
    <g id="Group_92" data-name="Group 92" transform="translate(8.823 6.585)">
      <g id="Group_73" data-name="Group 73">
        <path id="Path_57" data-name="Path 57" d="M2770.361,2887.743a3.536,3.536,0,0,0-3.564,0l-38.4,22.446a3.535,3.535,0,0,0-1.75,3.05v44.9a3.539,3.539,0,0,0,1.75,3.051l38.4,22.446a3.535,3.535,0,0,0,3.564,0l38.4-22.446a3.539,3.539,0,0,0,1.75-3.051v-44.9a3.535,3.535,0,0,0-1.75-3.05Zm-1.781,3.05,38.4,22.446v44.9l-38.4,22.446-38.4-22.446v-44.9Z" transform="translate(-2726.644 -2887.261)" fill="#ef3054" fill-rule="evenodd"/>
      </g>
      <g id="Group_88" data-name="Group 88" transform="translate(6.982 29.094)">
        <g id="Group_74" data-name="Group 74" transform="translate(23.914 4.368)">
          <path id="Path_58" data-name="Path 58" d="M1069.575,575.308c.25.761.481,1.53.687,2.255s.38,1.409.517,2c.062.252.111.488.158.7.008.036.016.073.023.107.054.244.1.454.127.624.065.342.1.537.1.537l-1.282.2s-.024-.2-.064-.544c-.01-.087-.022-.183-.034-.286s-.028-.213-.045-.328c-.033-.229-.066-.487-.114-.77-.041.035-.083.07-.128.1a3.46,3.46,0,0,1-.368.244,3.605,3.605,0,0,1-.431.2,3.046,3.046,0,0,1-.473.144c-.082.017-.163.035-.246.048s-.165.014-.247.02a2.431,2.431,0,0,1-.48-.009,2.347,2.347,0,0,1-.44-.08,1.788,1.788,0,0,1-.375-.13,2.124,2.124,0,0,1-.3-.147c-.084-.052-.154-.1-.211-.144-.114-.083-.174-.136-.174-.136s.083,0,.22.016c.068.008.152.014.242.029s.2.007.309.017a2.572,2.572,0,0,0,.355.011,3.754,3.754,0,0,0,.386-.01,4.027,4.027,0,0,0,.406-.042c.068-.01.137-.022.207-.029s.136-.032.205-.046c.14-.023.273-.069.409-.1s.264-.088.393-.128.252-.092.367-.145.206-.087.3-.131c-.08-.476-.179-1-.292-1.556-.15-.724-.321-1.5-.512-2.264-.377-1.538-.811-3.067-1.137-4.216l-.435-1.537c-.069-.243-.108-.38-.108-.38l.349-.112.115.314.566,1.556C1068.536,572.284,1069.082,573.784,1069.575,575.308Z" transform="translate(-1065.78 -569.292)" fill="#ef3054"/>
        </g>
        <g id="Group_75" data-name="Group 75" transform="translate(29.069 2.184)">
          <path id="Path_59" data-name="Path 59" d="M1098.992,557.579c.073.235.159.5.257.786.383,1.15.961,2.662,1.525,4.191.1.28.2.558.3.836a2.96,2.96,0,0,1,.712-.249c.06-.013.12-.025.18-.033,0,0-.144,3.1,1.405,3.949s4.9.987,4.9.987a6.329,6.329,0,0,1-6.706.991l-.24.038s-.007-.05-.018-.146l-.069-.029c-.181-.079-.364-.164-.552-.26a3.8,3.8,0,0,1-.644-.416l-.071.045a5.3,5.3,0,0,1-.475.247,4.909,4.909,0,0,1-.524.188,3.471,3.471,0,0,1-.548.116q-.137.02-.273.034c-.091,0-.181,0-.27,0s-.174,0-.258-.007l-.246-.035-.231-.04c-.074-.019-.142-.044-.209-.065a3.218,3.218,0,0,1-.355-.13c-.1-.05-.186-.1-.255-.142-.138-.081-.211-.135-.211-.135s.1,0,.251,0c.078,0,.172,0,.277.014s.226-.01.352-.007c.064,0,.129,0,.2,0l.208-.02.217-.016.224-.035c.076-.013.153-.023.23-.032s.155-.037.234-.053c.157-.029.314-.074.471-.119s.311-.1.467-.146c.11-.044.221-.083.329-.125a2.833,2.833,0,0,1,.718-3.837c-.1-.366-.206-.736-.31-1.107-.449-1.555-.922-3.116-1.225-4.3-.079-.3-.146-.569-.2-.812s-.108-.452-.144-.628c-.014-.061-.026-.116-.037-.168-.052-.243-.083-.382-.083-.382l.358-.085s.041.141.114.393c.013.044.027.089.041.14C1098.853,557.14,1098.917,557.344,1098.992,557.579Z" transform="translate(-1096.118 -556.437)" fill="#ef3054"/>
        </g>
        <g id="Group_76" data-name="Group 76" transform="translate(21.17 5.562)">
          <path id="Path_60" data-name="Path 60" d="M1050.968,576.634l.218-.1a3,3,0,0,1,.449-.144,3.545,3.545,0,0,1,.448-.068,3.089,3.089,0,0,1,.788.042,2.584,2.584,0,0,1,.531.159,1.15,1.15,0,0,1,.189.1l-.206.032c-.128.019-.309.048-.518.087s-.448.088-.694.15c-.123.032-.247.07-.373.107s-.252.079-.369.138l-.183.074-.174.089c-.056.032-.118.053-.17.089s-.106.068-.16.1a2.8,2.8,0,0,0-.3.2,1.911,1.911,0,0,0-.261.205c-.077.069-.164.124-.224.186s-.118.114-.166.159l-.032.029c-.077.069-.128.109-.128.109s.013-.075.049-.2c.018-.064.039-.144.071-.233a1.994,1.994,0,0,1,.138-.285l.091-.159c.033-.054.078-.1.119-.156a2,2,0,0,1,.292-.313c.05-.043.1-.087.154-.13a1.5,1.5,0,0,1,.213-.146C1050.831,576.714,1050.9,576.67,1050.968,576.634Z" transform="translate(-1049.636 -576.317)" fill="#ef3054"/>
        </g>
        <g id="Group_77" data-name="Group 77" transform="translate(26.682 3.307)">
          <path id="Path_61" data-name="Path 61" d="M1085.625,563.5c-.112.014-.231.031-.356.053s-.254.05-.387.071-.267.059-.4.1-.272.073-.4.128c-.066.024-.135.044-.2.07s-.128.056-.191.084a3.838,3.838,0,0,0-.367.179,3.528,3.528,0,0,0-.334.2,2.312,2.312,0,0,0-.3.2c-.088.067-.183.117-.253.178s-.135.11-.189.152c-.109.084-.18.13-.18.13s.023-.077.076-.207c.027-.065.06-.146.1-.234a2.042,2.042,0,0,1,.176-.282,1.8,1.8,0,0,1,.25-.308,2.26,2.26,0,0,1,.331-.3,2.485,2.485,0,0,1,.4-.262c.074-.038.146-.077.222-.113s.155-.059.233-.089a2.945,2.945,0,0,1,.479-.129,3.585,3.585,0,0,1,.472-.056,3.675,3.675,0,0,1,.441.013,2.832,2.832,0,0,1,.388.06,2.936,2.936,0,0,1,.319.088,2.245,2.245,0,0,1,.236.095,1.267,1.267,0,0,1,.2.105l-.218.021C1086.04,563.445,1085.848,563.465,1085.625,563.5Z" transform="translate(-1082.07 -563.049)" fill="#ef3054"/>
        </g>
        <g id="Group_78" data-name="Group 78" transform="translate(32.633 1.701)">
          <path id="Path_62" data-name="Path 62" d="M1120.875,554.153c-.138.011-.282.035-.429.05l-.453.064c-.151.032-.309.044-.46.082s-.307.059-.454.1c-.074.019-.15.034-.223.05s-.143.044-.214.062l-.21.058-.2.067a3.455,3.455,0,0,0-.366.126l-.315.113c-.089.043-.172.075-.24.1-.137.056-.223.083-.223.083s.047-.072.14-.192c.047-.059.1-.133.176-.212s.163-.154.262-.24c.05-.041.1-.088.158-.129l.184-.119.2-.122c.069-.039.144-.069.217-.105a2.984,2.984,0,0,1,.472-.186,3.617,3.617,0,0,1,.506-.129,4.523,4.523,0,0,1,.515-.069c.171-.012.34-.014.5-.01a4.65,4.65,0,0,1,.465.042,3.773,3.773,0,0,1,.41.079,3.454,3.454,0,0,1,.593.2,1.513,1.513,0,0,1,.211.11l-.833.083C1121.144,554.124,1121.013,554.136,1120.875,554.153Z" transform="translate(-1117.091 -553.595)" fill="#ef3054"/>
        </g>
        <g id="Group_79" data-name="Group 79" transform="translate(39.211 1.248)">
          <path id="Path_63" data-name="Path 63" d="M1158.05,551.556l-.414.022c-.134.015-.271.013-.4.029s-.257.016-.374.035-.234.022-.338.04-.2.029-.29.04-.162.031-.226.041c-.128.023-.207.03-.207.03s.052-.055.152-.142a1.8,1.8,0,0,1,.191-.15c.078-.05.168-.106.268-.162a3.452,3.452,0,0,1,.732-.276,3.914,3.914,0,0,1,.431-.086c.141-.023.284-.029.428-.041l.022,0a5.044,5.044,0,0,1,.881.046,4.544,4.544,0,0,1,.749.167,3.851,3.851,0,0,1,.507.2,1.52,1.52,0,0,1,.183.1s-.077.009-.208.019c-.106.009-.25.019-.417.028l-.114.005C1159.171,551.525,1158.606,551.533,1158.05,551.556Z" transform="translate(-1155.8 -550.931)" fill="#ef3054"/>
        </g>
        <g id="Group_80" data-name="Group 80" transform="translate(43.805 10.576)">
          <path id="Path_64" data-name="Path 64" d="M1183.771,608.036l.149-.076c.105-.049.2-.122.308-.185s.2-.147.3-.232a3.574,3.574,0,0,0,.277-.268,3.5,3.5,0,0,0,.249-.286l.217-.289.173-.276c.114-.169.176-.328.236-.432s.086-.168.086-.168l-.043.183a4.579,4.579,0,0,1-.125.485l-.1.322-.147.351c-.048.125-.122.242-.186.368a3.841,3.841,0,0,1-.229.367c-.081.122-.179.233-.269.349s-.2.217-.306.308l-.158.14-.15.11-.014.011a3.739,3.739,0,0,1-.319.205,3.234,3.234,0,0,1-.538.239,1.887,1.887,0,0,1-.183.05l-.065.013-.094-1.077s.026,0,.033,0a.4.4,0,0,0,.089,0,2.2,2.2,0,0,0,.4-.067l.028-.008a2.163,2.163,0,0,0,.242-.082Z" transform="translate(-1182.833 -605.824)" fill="#ef3054"/>
        </g>
        <g id="Group_81" data-name="Group 81" transform="translate(37.898 17.35)">
          <path id="Path_65" data-name="Path 65" d="M1151.651,647.947a2.239,2.239,0,0,0,.13.272,5.23,5.23,0,0,0,.325.553c.062.092.119.188.186.279l.209.269a6.358,6.358,0,0,0,.441.522c.077.083.15.171.229.25l.238.231c.157.15.3.305.46.431l.432.369c.132.118.265.209.379.3l.3.224.26.2-.289-.148-.332-.171c-.128-.068-.277-.136-.428-.231l-.5-.294c-.181-.1-.355-.23-.542-.355l-.284-.194c-.1-.068-.185-.144-.28-.217a6.855,6.855,0,0,1-.557-.466l-.271-.249c-.089-.085-.169-.178-.254-.266a6.157,6.157,0,0,1-.468-.552,3.092,3.092,0,0,1-.2-.286.05.05,0,0,1-.006-.008,8.375,8.375,0,0,0,1.386,2.888s-2.058-2.366-3.271-4.007a4.6,4.6,0,0,1-.864-1.451c0-.339,1.406-.029,2.6.395l.645.067a.467.467,0,0,1-.01.047.263.263,0,0,0-.007.056c0,.02,0,.043-.005.069.963.4,1.516.818.476.853a1.6,1.6,0,0,0-.343.047c.012.041.024.084.038.127.022.063.044.126.066.194C1151.569,647.771,1151.612,647.856,1151.651,647.947Z" transform="translate(-1148.075 -645.686)" fill="#ef3054"/>
        </g>
        <g id="Group_82" data-name="Group 82" transform="translate(42.451 15.603)">
          <path id="Path_66" data-name="Path 66" d="M1177.5,636.384a2.658,2.658,0,0,0,.3.107,5.856,5.856,0,0,0,.662.172c.116.024.231.052.349.072l.361.048a6.911,6.911,0,0,0,.727.065c.121.006.241.017.36.02l.354,0c.232,0,.46.005.673-.016l.606-.044c.188-.008.358-.038.512-.056l.394-.051.346-.046-.331.109-.379.125c-.148.047-.313.108-.5.153l-.6.157c-.212.063-.441.1-.678.147l-.361.071c-.123.02-.248.034-.375.05a7.431,7.431,0,0,1-.775.076l-.394.022c-.131,0-.264,0-.394-.005a6.953,6.953,0,0,1-.776-.053c-.041,0-.082-.009-.124-.015-.083-.012-.166-.026-.248-.041-.122-.023-.243-.039-.358-.07a5.731,5.731,0,0,1-.654-.2,4.6,4.6,0,0,1-.549-.234,4.155,4.155,0,0,1-.417-.246c-.057-.036-.108-.077-.154-.112a1.544,1.544,0,0,1-.124-.1l-.1-.092,1.145-.99a.328.328,0,0,1,.027.04.191.191,0,0,0,.035.046.755.755,0,0,0,.071.077,2.63,2.63,0,0,0,.235.21,3.447,3.447,0,0,0,.364.244,4.02,4.02,0,0,0,.443.232l.036.018C1177.31,636.315,1177.407,636.345,1177.5,636.384Z" transform="translate(-1174.867 -635.406)" fill="#ef3054"/>
        </g>
        <g id="Group_83" data-name="Group 83" transform="translate(37.367 1.307)">
          <path id="Path_67" data-name="Path 67" d="M1149.388,558.355a2.169,2.169,0,0,1,.08.215c.016.059.032.119.05.179.033.122.065.253.093.389a2.861,2.861,0,0,1,.046.891,2.086,2.086,0,0,1-.122.475,1.7,1.7,0,0,1-.256.428,2.091,2.091,0,0,1-.751.558,3.533,3.533,0,0,1-.8.25,6.13,6.13,0,0,1-.753.1c-.238.013-.461.022-.667.016a5.5,5.5,0,0,1-.56-.045c-.167-.023-.31-.045-.427-.073a3.764,3.764,0,0,1-.367-.1,3.691,3.691,0,0,1,.373-.062l.422-.051c.163-.015.345-.041.543-.056s.41-.042.632-.078a5.5,5.5,0,0,0,.682-.15,2.908,2.908,0,0,0,.66-.27,1.46,1.46,0,0,0,.5-.434,1.3,1.3,0,0,0,.135-.273,1.4,1.4,0,0,0,.057-.3,2.149,2.149,0,0,0-.079-.655c-.029-.11-.063-.219-.1-.328l-.057-.165c-.015-.038-.031-.075-.05-.112a1.438,1.438,0,0,0-.312-.391,3.047,3.047,0,0,0-.709-.462c-.076-.037-.135-.062-.183-.082l-.038-.017-.073-.028.18-.5-.4.128s-.023-.093-.063-.255c-.009-.041-.021-.086-.031-.135-.036-.156-.077-.346-.123-.561-.113-.563-.263-1.312-.414-2.062s-.31-1.489-.446-2.039c-.1-.388-.178-.676-.219-.816-.019-.059-.029-.095-.029-.095l.286-.11s.051.11.129.3c.064.152.148.353.24.6.21.539.464,1.263.709,1.988s.487,1.445.669,1.987c.083.243.155.439.208.582l.018.05c.061.155.095.243.095.243l-.15.049.017.008a4,4,0,0,1,.6.373,3.553,3.553,0,0,1,.3.26A2.167,2.167,0,0,1,1149.388,558.355Z" transform="translate(-1144.949 -551.277)" fill="#ef3054"/>
        </g>
        <g id="Group_84" data-name="Group 84" transform="translate(21.321 14.014)">
          <path id="Path_68" data-name="Path 68" d="M1052.216,628.583a5.462,5.462,0,0,1-.465-.446,6.648,6.648,0,0,1-1.231-1.954l.591-.124s0,.021,0,.06.007.09.014.165c.014.147.039.361.076.618.01.068.021.138.032.211l1.83,1.643,9.494,1.82c-.267.071-.662.2-1.143.349a48.228,48.228,0,0,1-5.21,1.427c-.47-.05-.932-.116-1.366-.194-.578-.112-1.11-.23-1.558-.36-.156-.042-.3-.084-.433-.126l1.907-.259a2.155,2.155,0,0,0,.144-.547,1.129,1.129,0,0,0-.93-1.283,5.451,5.451,0,0,1-1.069-.5A5.231,5.231,0,0,1,1052.216,628.583Z" transform="translate(-1050.521 -626.058)" fill="#ef3054"/>
        </g>
        <g id="Group_85" data-name="Group 85" transform="translate(21.852 19.784)">
          <path id="Path_69" data-name="Path 69" d="M1053.986,661.16l-.047.074-.128-.991a1.811,1.811,0,0,1-.164-.149l.635-.086Z" transform="translate(-1053.647 -660.009)" fill="#ef3054"/>
        </g>
        <g id="Group_86" data-name="Group 86" transform="translate(36.04 7.834)">
          <path id="Path_70" data-name="Path 70" d="M1137.64,590.614c-.024.078-.04.164-.059.253a2.485,2.485,0,0,0-.03.277l-.008.144.007.146a2.242,2.242,0,0,0,.034.292,2.784,2.784,0,0,0,.07.28c.024.092.066.173.1.255a1.687,1.687,0,0,0,.111.221,1.56,1.56,0,0,0,.106.183c.037.052.069.1.094.133l.083.118-.1-.1-.12-.115a1.546,1.546,0,0,1-.143-.162,1.656,1.656,0,0,1-.158-.205c-.048-.078-.109-.156-.154-.248a2.711,2.711,0,0,1-.133-.286,2.387,2.387,0,0,1-.1-.313l-.039-.162-.025-.165a2.655,2.655,0,0,1-.026-.324c0-.105,0-.209.01-.306,0-.047.011-.086.016-.131s.01-.1.017-.142a2.687,2.687,0,0,1,.1-.408c.014-.048.029-.089.041-.12l.016-.04.577.3s-.007.009-.019.028-.023.037-.043.073l-.016.033a2.152,2.152,0,0,0-.123.275C1137.686,590.461,1137.664,590.535,1137.64,590.614Z" transform="translate(-1137.14 -589.689)" fill="#ef3054"/>
        </g>
        <g id="Group_87" data-name="Group 87">
          <path id="Path_71" data-name="Path 71" d="M1795.315,465.275c.071-1.093.8-2.447,3.805-4.256a5.727,5.727,0,0,1,6.741.575c1.883,1.417,4.495,1.161,8.265.608l1.439-.209c.036.1.075.194.115.292l.594-.123s0,.021,0,.06.007.091.014.165c.014.148.039.362.075.62.01.068.021.139.032.212l1.835,1.653,9.531,1.845c-.268.07-.665.2-1.148.348.267-.041.526-.1.779-.16a7.215,7.215,0,0,1,1.386-.223,6.555,6.555,0,0,1,1.659.2,7.345,7.345,0,0,0,1.389.2q.712.017,1.357.052a4.612,4.612,0,0,1-.865-1.459c0-.34,1.412-.027,2.614.4l.647.068s-.007.04-.01.047a.254.254,0,0,0-.007.057c0,.02,0,.043-.005.069.966.406,1.521.824.476.857a1.608,1.608,0,0,0-.344.047c.012.042.024.085.037.128a18.767,18.767,0,0,1,4.259.887l1.7.688-1.214-1.378a5.007,5.007,0,0,1-.971-1.667c-.084-.012-.167-.027-.249-.042-.122-.024-.244-.04-.36-.071a5.751,5.751,0,0,1-.656-.2,4.591,4.591,0,0,1-.551-.236,4.177,4.177,0,0,1-.418-.248c-.057-.036-.108-.078-.154-.113a1.556,1.556,0,0,1-.125-.1l-.1-.092,1.152-.992a.3.3,0,0,1,.027.04.2.2,0,0,0,.035.046.789.789,0,0,0,.071.077,2.659,2.659,0,0,0,.235.211,3.466,3.466,0,0,0,.365.246,4.044,4.044,0,0,0,.444.234,7.555,7.555,0,0,1,.254-2.9l-.014.011a3.717,3.717,0,0,1-.32.205,3.257,3.257,0,0,1-.541.239,1.9,1.9,0,0,1-.184.049l-.065.013-.092-1.082s.026,0,.033,0a.4.4,0,0,0,.089,0,2.216,2.216,0,0,0,.4-.066l.028-.008c-.464.029-1.643.112-4.3.342a4.154,4.154,0,0,1-3.505-1.24,3.631,3.631,0,0,1-1.112-2.512,1.3,1.3,0,0,1,.607-1.009c.005-.047.01-.1.018-.143a2.718,2.718,0,0,1,.1-.41c.014-.048.03-.09.042-.121l.016-.04.579.3s-.007.009-.019.028-.023.037-.043.073l-.017.033a11.764,11.764,0,0,1,1.664-.264c.493-.054.995-.111,1.491-.2l-.038-.017-.073-.028.181-.5-.4.128s-.022-.094-.063-.257c-.009-.042-.021-.087-.031-.135-.384.063-.774.106-1.161.149-1.519.168-3.083.346-3.577,1.75.061-.013.121-.025.181-.033,0,0-.151,3.118,1.4,3.968s4.92,1,4.92,1a6.356,6.356,0,0,1-6.736.983l-.241.038s-.007-.051-.018-.146l-.07-.03c-.694.722-2.736,2.452-5.07.742l-.072-.052c.008.036.016.073.023.108.054.245.095.456.126.627.065.343.1.54.1.54l-1.288.2s-.024-.2-.063-.546c-.01-.088-.022-.184-.034-.288a2.9,2.9,0,0,1-1.334.45,3.549,3.549,0,0,1-2.566-1.047c-2.5-2.192-2.811-6.754-2.848-7.654.028-.091.058-.177.089-.262-.077.069-.128.109-.128.109s.013-.076.049-.2c.018-.064.04-.145.072-.234a1.982,1.982,0,0,1,.139-.286l.092-.16a1.928,1.928,0,0,1,.12-.156,2,2,0,0,1,.294-.313c.05-.043.1-.087.155-.13a3.986,3.986,0,0,1,3.026-1.292c.1,0,.176,0,.243.007-.069-.244-.107-.382-.107-.382l.351-.112.115.316a7.012,7.012,0,0,1,5.342-2.039c.1,0,.211.006.318.009l-.083-.383.36-.085s.041.142.114.395a8.023,8.023,0,0,1,4.467-1.33,8.434,8.434,0,0,1,2.1.273c-.019-.06-.029-.1-.029-.1l.287-.11s.051.11.129.3a5.367,5.367,0,0,1,2.791-.347h.023a5.079,5.079,0,0,1,.885.048,4.573,4.573,0,0,1,.751.169,3.868,3.868,0,0,1,.509.2,1.512,1.512,0,0,1,.184.1s-.078.009-.209.018c-.106.009-.251.018-.419.027a7.857,7.857,0,0,1,3.244,3.757,19.764,19.764,0,0,0-5.848,1.174l-.086.026.018.05.095.244-.15.049.017.008a4.013,4.013,0,0,1,.6.375c3.747-1.228,5.818-1.084,6.383-1.008,1.03.584,2.917,2.514,4.09,8.912,1.678,9.153-.112,8.879-4.245,13.1a7.136,7.136,0,0,0-1.513,2.7,2.544,2.544,0,0,1-.185.8,3.784,3.784,0,0,1-.2.544c-1.316,5.029-15.906,3.19-15.906,3.19l-5.855-8.824-1.493-5.269c.112.049.246.108.4.17s.31.122.484.183a11.71,11.71,0,0,0,1.21.354,11.3,11.3,0,0,0,1.729.264c.472.035.785.032.785.032s-.308-.065-.755-.2a10.925,10.925,0,0,1-1.582-.61c-.152-.073-.3-.149-.447-.227.456.025.964.031,1.5.023.638-.018,1.316-.07,1.984-.152s1.329-.211,1.938-.353,1.168-.3,1.638-.466c.236-.075.449-.153.637-.225s.352-.131.483-.189l.417-.174-.443.084c-.139.028-.311.056-.508.084s-.417.063-.66.089c-.482.061-1.049.1-1.652.116s-1.245,0-1.88-.052q-.238-.02-.473-.045c-.472-.051-.936-.118-1.371-.2-.58-.114-1.114-.233-1.564-.364-.157-.043-.3-.085-.434-.128l1.916-.257a2.16,2.16,0,0,0,.146-.549l-.918.113-3.421.406c-1.058.131-2.034.22-2.884.352a12.9,12.9,0,0,0-2.167.517,5.719,5.719,0,0,0-1.3.607,1.71,1.71,0,0,0-.39.325,1.707,1.707,0,0,1,.374-.348,5.368,5.368,0,0,1,1.277-.683,13.1,13.1,0,0,1,2.168-.619c.857-.174,1.824-.3,2.88-.463l3.406-.5.957-.136a1.229,1.229,0,0,0-.915-.861,5.463,5.463,0,0,1-1.073-.5,59.2,59.2,0,0,1-9.887.108c-.008-.032-.017-.063-.024-.1a4.193,4.193,0,0,0-.138-.43,3.893,3.893,0,0,0-.412-.787,5.141,5.141,0,0,0-1.146-1.2,7.555,7.555,0,0,0-1.273-.778,10.026,10.026,0,0,0-1.212-.487,10.261,10.261,0,0,0-1.057-.284c-.315-.072-.594-.116-.824-.146a6.334,6.334,0,0,0-.726-.065s.246.1.664.284c.21.093.461.209.747.342s.6.3.936.476.694.388,1.052.624a8.556,8.556,0,0,1,1.055.8,4.846,4.846,0,0,1,.876,1.019,3.424,3.424,0,0,1,.292.589,2.8,2.8,0,0,1,.1.313l.094.372a12.219,12.219,0,0,1,.271,1.45,6.725,6.725,0,0,1,.026,1.389,5.985,5.985,0,0,1-.266,1.272,8.3,8.3,0,0,1-.468,1.108c-.173.337-.347.644-.513.911s-.313.5-.44.693l-.244.369a4.6,4.6,0,0,1-2.087.766,8.6,8.6,0,0,1-5.005-.454l4.4-2.1.071-.116a5.969,5.969,0,0,0,.163-5.05c-.927-2.453-2.73-2.852-3.555-2.72l-.06.009Zm21.527,2.681-.3,1.156-.048.075-.127-1a1.809,1.809,0,0,1-.164-.15Zm30.2-4.6c0-.007,0-.013,0-.02-.018-.1-.037-.189-.055-.283.949-.111,1.829-.209,2.614-.295.431-.045.83-.1,1.212-.12a5.938,5.938,0,0,1,2.445.394c.313.118.474.193.474.193s-.165-.065-.483-.165a6.59,6.59,0,0,0-1.407-.275,6.054,6.054,0,0,0-1.017,0c-.367.035-.769.109-1.2.173C1848.847,463.084,1847.978,463.219,1847.039,463.358Zm7.419-1.308a10.332,10.332,0,0,1-.8-1.3,14.351,14.351,0,0,1-.636-1.415,7.451,7.451,0,0,1-.406-1.4,4.826,4.826,0,0,1-.06-1.327,5.154,5.154,0,0,1,.263-1.19,8.376,8.376,0,0,1,.417-.989c.071-.146.145-.281.215-.4s.131-.241.192-.344c.246-.413.385-.648.385-.648l-.153.126c-.1.084-.245.206-.419.377a6.951,6.951,0,0,0-.6.646,6.2,6.2,0,0,0-.659.96,4.911,4.911,0,0,0-.588,2.932,7.009,7.009,0,0,0,.266,1.269q-2.83.678-5.446,1.261c-.035-.132-.072-.26-.108-.388l.146-.035,1.61-.4s-.6.1-1.638.26l-.161.027a21.526,21.526,0,0,0-.774-2.248l.533-.068c4.211-.525,5.3-2.11,6.253-3.507a5.341,5.341,0,0,1,3-2.473c2.816-.956,4.359-.39,5.04.049l-4.043,2.245-.058.163a5.971,5.971,0,0,0,.4,4.55,4.182,4.182,0,0,0,3.968,2.057l.077-.008,3.572-1.69a6.8,6.8,0,0,1-3.477,4.484,6.614,6.614,0,0,1-.833.346c-.087.024-.191.049-.306.076a6.057,6.057,0,0,1-.83.128,5,5,0,0,1-1.06-.024,4.265,4.265,0,0,1-1.171-.32,4.651,4.651,0,0,1-1.13-.711,5.616,5.616,0,0,1-.513-.491c-.08-.092-.161-.183-.242-.274S1854.535,462.149,1854.458,462.049Zm-60.029,3.986.081.614,5.221-2.373c.283-.018,1.693,0,2.5,2.142a5.193,5.193,0,0,1-.028,4.135l-5.383,2.572.378.453c.06.074,1.55,1.789,6.384,1.148,2.481-.328,3.514-1.739,4.51-3.1,1.043-1.427,2.029-2.775,4.711-3.13l.377-.05.153-.02.282-.038.1-.014.312-.041.146-.019.283-.038.216-.029.8-.106a67.659,67.659,0,0,0,2.218,7.542,37.225,37.225,0,0,1,2.941,11.7,9.559,9.559,0,0,1-.558,3.66c-.342.742-.659,1.172-2.044,2.1-1.479.987-12.48.795-12.694,1.158-.353.6,17.366,11.048,22.792,13.719.187.092.679.255,1.038.392.262.1.429-.015.661-.123.865-.4,2.46-1.42,2.787-1.614,6.488-3.842,21.52-12.633,21.191-12.344a47.127,47.127,0,0,1-5.009.025c-4.213-.22-10.356.166-10.321-2.291.106-7.357,2.987-13.606,4.021-14.664.619-.633,1.2-1.173,1.7-1.649,1.471-1.377,2.633-2.465,3.162-4.305.478-1.662.413-3.874-.229-7.544l.231-.031c.249-.033.494-.067.734-.1,2.43-.34,4.348-.608,7.131.832a6.775,6.775,0,0,0,5.952-.165,7.9,7.9,0,0,0,4.16-6.042l.139-.862-5.05,2.388a3.231,3.231,0,0,1-3-1.589,5.1,5.1,0,0,1-.391-3.644l4.771-2.649-.327-.422c-.073-.1-1.845-2.3-6.5-.721a6.178,6.178,0,0,0-3.462,2.823c-.93,1.359-1.808,2.642-5.607,3.115-.212.026-.489.062-.814.1a9.819,9.819,0,0,0-1.362-2.13,4.62,4.62,0,0,0-1.816-1.356c-2.065-4.514-5.115-5.209-6.784-5.212a6.53,6.53,0,0,0-2.134.351,9.552,9.552,0,0,0-2.4-.315,9.216,9.216,0,0,0-4.9,1.4c-.094,0-.186,0-.278,0a8.229,8.229,0,0,0-5.968,2.211,5.078,5.078,0,0,0-3.649,1.475,7.057,7.057,0,0,0-1.634,5.319c.023.81.09,1.669.185,2.562l-.376.055c-4.052.595-6.109.673-7.578-.433a6.689,6.689,0,0,0-7.767-.627C1795.41,462.184,1794.149,463.919,1794.429,466.035Z" transform="translate(-1794.391 -448.241)" fill="#ef3054"/>
        </g>
      </g>
      <g id="Group_89" data-name="Group 89" transform="translate(68.181 41.382)">
        <path id="Path_72" data-name="Path 72" d="M1291.445,615.824a5.813,5.813,0,0,0,.616-.093,6.634,6.634,0,0,0,.67-.162c.115-.035.231-.072.349-.108s.232-.085.349-.127a6.974,6.974,0,0,0,.68-.313,6.591,6.591,0,0,0,.63-.4c.2-.144.386-.3.565-.455.09-.079.173-.162.257-.24s.161-.161.239-.24l.219-.236c.067-.08.137-.153.2-.226.128-.148.245-.286.348-.406l.267-.319c.146-.18.237-.28.237-.28s-.045.126-.137.341c-.044.11-.107.235-.179.383s-.162.307-.265.48c-.054.085-.108.176-.168.267s-.129.18-.195.275-.144.189-.223.283-.164.186-.253.279a5.045,5.045,0,0,1-.591.531,4.663,4.663,0,0,1-.7.437,4.836,4.836,0,0,1-.762.31,6.983,6.983,0,0,1-.761.2,6.892,6.892,0,0,1-.728.1,5.828,5.828,0,0,1-.655.005,4.373,4.373,0,0,1-.963-.153,2.29,2.29,0,0,1-.346-.123A5.507,5.507,0,0,0,1291.445,615.824Z" transform="translate(-1290.144 -612.223)" fill="#ef3054"/>
      </g>
      <g id="Group_90" data-name="Group 90" transform="translate(11.434 54.326)">
        <path id="Path_73" data-name="Path 73" d="M960.876,688.6c.125-.031.243-.056.347-.077s.193-.053.266-.072c.15-.04.237-.059.237-.059s-.074.048-.208.127c-.068.038-.148.091-.247.136s-.211.1-.336.147-.262.095-.409.143a4.723,4.723,0,0,1-.467.124c-.162.041-.334.067-.508.095s-.351.041-.53.062-.355.019-.531.025-.347,0-.513-.008-.328-.017-.48-.033-.295-.033-.425-.052a5.421,5.421,0,0,1-.869-.192l.881-.017.423-.011.47-.016c.163,0,.331-.02.5-.023s.343-.022.515-.035.346-.026.514-.048.337-.032.5-.062.316-.041.461-.073S960.749,688.633,960.876,688.6Z" transform="translate(-956.203 -688.392)" fill="#ef3054"/>
      </g>
      <g id="Group_91" data-name="Group 91" transform="translate(21.694 45.812)">
        <path id="Path_74" data-name="Path 74" d="M1024.046,638.735l-.049,0-1.405.075c-.9.044-1.728.073-2.46.088l-1.026.02-.871,0c-.526,0-.938-.011-1.221-.019l-.431-.014.431-.025c.28-.016.692-.05,1.216-.086s1.159-.093,1.888-.155c.364-.029.751-.068,1.159-.107s.839-.072,1.286-.121l1.019-.107A5.482,5.482,0,0,0,1024.046,638.735Z" transform="translate(-1016.583 -638.289)" fill="#ef3054"/>
      </g>
    </g>
    
  </g>
</svg>
