<svg xmlns="http://www.w3.org/2000/svg" width="250.792" height="51.551" viewBox="0 0 250.792 51.551">
  <g id="md" transform="translate(-1.047 -1.45)">
    <path id="Path_338" data-name="Path 338" d="M352.1,44.789h5.238L359.3,34.66h-4.9Z" transform="translate(-183.873 -17.395)" fill="#1b2f33"/>
    <path id="Path_339" data-name="Path 339" d="M140.36,39.493h4.891l1.324-4.953h-5.238Z" transform="translate(-72.969 -17.332)" fill="#1b2f33"/>
    <path id="Path_340" data-name="Path 340" d="M473.68,44.789h5.238l1.957-10.129h-4.891Z" transform="translate(-247.553 -17.395)" fill="#1b2f33"/>
    <path id="Path_341" data-name="Path 341" d="M248.1,2.36,14.826,1.45a3.731,3.731,0,0,0-3.667,2.872L1.139,48.339a3.689,3.689,0,0,0,3.653,4.472L238.485,53a3.734,3.734,0,0,0,3.662-2.891l9.605-43.3a3.693,3.693,0,0,0-3.643-4.453ZM33.317,47.368H23.188l3.567-15.082H21.574L18.235,47.368H8.106L16.969,7.079H27.1L23.817,22.156h5.238L32.336,7.079H42.466L39.242,22.156,32.97,27.395l3.972,4.891L33.313,47.368Zm4.2,0L46.671,7.079H56.857l-9.21,40.289H37.518Zm40.289-4.891-6.158,4.891H66.7l3.281-15.025H65.091L61.462,47.368H51.333L60.486,7.079H80.8l3.915,4.948L82.473,22.156,76.2,27.395l3.972,4.948L77.811,42.472Zm2.534,4.891L89.493,7.079H99.679l-9.21,40.289Zm39.6,0H109.809l6.791-30.1h-4.891l-6.848,30.1H94.731l7.829-35.4,6.215-4.891H124.2l3.915,4.891-8.172,35.4Zm21.873,0H131.567l4.319-19.049L131,17.208l2.3-10.129h10.129l-1.61,6.848,1.61,3.972,3.338-3.972,1.553-6.848h10.129L156.2,17.208l-10.129,11.11-4.257,19.049Zm27.05,0,2.3-10.186h-5.238l-2.3,10.186H153.493l7.829-35.4,6.562-4.891h15.082l3.915,4.891-7.886,35.4H168.865Zm33.612,0H186.991l-3.915-4.891,6.848-30.564,6.215-4.834h15.082l3.972,4.834L212.835,22.1H202.763l1.267-4.834h-5.238l-4.257,19.973h4.948l.981-4.891h-2.357l1.1-5.005h12.72L208.7,42.482l-6.215,4.891Zm34.417,0H226.76l2.3-10.186h-5.238l-2.3,10.186H211.392l7.829-35.4,6.562-4.891h15.082l3.915,4.891-7.886,35.4Z" transform="translate(0 0)" fill="#1b2f33"/>
  </g>
</svg>
