<svg xmlns="http://www.w3.org/2000/svg" width="122.523" height="50.972" viewBox="0 0 122.523 50.972">
  <g id="logo-2-landscape" transform="translate(-58.5 -1)">
    <g id="logo-2-landscape-2" data-name="logo-2-landscape" transform="translate(58.5 1)">
      <rect id="Rectangle_16" data-name="Rectangle 16" width="122.523" height="50.972" fill="none"/>
      <g id="Group_92" data-name="Group 92" transform="translate(4.01 2.993)">
        <g id="Group_73" data-name="Group 73">
          <path id="Path_57" data-name="Path 57" d="M2746.515,2887.48a1.608,1.608,0,0,0-1.62,0l-17.455,10.2a1.607,1.607,0,0,0-.8,1.386v20.406a1.609,1.609,0,0,0,.8,1.386l17.455,10.2a1.607,1.607,0,0,0,1.62,0l17.455-10.2a1.608,1.608,0,0,0,.8-1.386v-20.406a1.607,1.607,0,0,0-.8-1.386Zm-.809,1.386,17.454,10.2v20.406l-17.454,10.2-17.455-10.2v-20.406Z" transform="translate(-2726.644 -2887.261)" fill="#1b2f33" fill-rule="evenodd"/>
        </g>
        <g id="Group_88" data-name="Group 88" transform="translate(3.174 13.224)">
          <g id="Group_74" data-name="Group 74" transform="translate(10.87 1.985)">
            <path id="Path_58" data-name="Path 58" d="M1067.505,572.026c.113.346.219.7.312,1.025s.173.64.235.908c.028.114.051.222.072.32,0,.016.007.033.011.049.025.111.043.206.058.284.03.155.047.244.047.244l-.583.09s-.011-.09-.029-.247c0-.04-.01-.083-.016-.13s-.013-.1-.021-.149c-.015-.1-.03-.221-.052-.35-.019.016-.038.032-.058.047a1.557,1.557,0,0,1-.167.111,1.631,1.631,0,0,1-.2.092,1.381,1.381,0,0,1-.215.065c-.037.008-.074.016-.112.022l-.112.009a1.105,1.105,0,0,1-.218,0,1.07,1.07,0,0,1-.2-.037.812.812,0,0,1-.171-.059.962.962,0,0,1-.136-.067c-.038-.024-.07-.047-.1-.066-.052-.038-.079-.062-.079-.062s.038,0,.1.007c.031,0,.069.006.11.013s.09,0,.14.008a1.169,1.169,0,0,0,.161.005,1.7,1.7,0,0,0,.176,0,1.82,1.82,0,0,0,.185-.019c.031,0,.062-.01.094-.013s.062-.014.093-.021c.063-.01.124-.031.186-.047s.12-.04.179-.058.114-.042.167-.066.094-.04.137-.059c-.037-.217-.081-.456-.133-.707-.068-.329-.146-.68-.233-1.029-.172-.7-.369-1.394-.517-1.916l-.2-.7-.049-.173.159-.051.052.143.257.707C1067.033,570.652,1067.281,571.334,1067.505,572.026Z" transform="translate(-1065.78 -569.292)" fill="#1b2f33"/>
          </g>
          <g id="Group_75" data-name="Group 75" transform="translate(13.213 0.993)">
            <path id="Path_59" data-name="Path 59" d="M1097.424,556.956c.033.107.072.227.117.357.174.523.437,1.21.693,1.905l.136.38a1.347,1.347,0,0,1,.323-.113c.027-.006.055-.011.082-.015,0,0-.066,1.411.639,1.795a6.86,6.86,0,0,0,2.228.449,2.877,2.877,0,0,1-3.048.451l-.109.017s0-.023-.008-.066l-.031-.013c-.082-.036-.166-.074-.251-.118a1.724,1.724,0,0,1-.293-.189l-.032.02a2.42,2.42,0,0,1-.216.112,2.253,2.253,0,0,1-.238.085,1.582,1.582,0,0,1-.249.053q-.062.009-.124.015c-.041,0-.082,0-.123,0s-.079,0-.117,0l-.112-.016-.1-.018c-.033-.008-.065-.02-.095-.03a1.466,1.466,0,0,1-.161-.059c-.046-.023-.084-.046-.116-.065-.063-.037-.1-.061-.1-.061s.043,0,.114,0c.036,0,.078,0,.126.006s.1,0,.16,0c.029,0,.058,0,.09,0l.094-.009.1-.007.1-.016.1-.015.106-.024c.071-.013.143-.034.214-.054s.141-.047.212-.066l.15-.057a1.288,1.288,0,0,1,.326-1.744c-.046-.166-.094-.335-.141-.5-.2-.707-.419-1.416-.557-1.956-.036-.135-.066-.258-.092-.369s-.049-.206-.066-.286c-.006-.028-.012-.052-.017-.076l-.037-.174.163-.039.052.179.019.063C1097.361,556.757,1097.39,556.85,1097.424,556.956Z" transform="translate(-1096.118 -556.437)" fill="#1b2f33"/>
          </g>
          <g id="Group_76" data-name="Group 76" transform="translate(9.623 2.528)">
            <path id="Path_60" data-name="Path 60" d="M1050.241,576.461l.1-.044a1.364,1.364,0,0,1,.2-.066,1.6,1.6,0,0,1,.2-.031,1.4,1.4,0,0,1,.358.019,1.177,1.177,0,0,1,.241.072.522.522,0,0,1,.086.044l-.094.014c-.058.009-.14.022-.235.04s-.2.04-.316.068c-.056.015-.112.032-.17.049s-.114.036-.167.063l-.083.033-.079.04c-.025.015-.054.024-.077.041s-.048.031-.073.045a1.282,1.282,0,0,0-.136.092.873.873,0,0,0-.118.093c-.035.031-.074.056-.1.085s-.053.052-.075.072l-.014.013c-.035.031-.058.049-.058.049s.006-.034.022-.093c.008-.029.018-.066.032-.106a.9.9,0,0,1,.063-.129l.041-.072a.866.866,0,0,1,.054-.071.906.906,0,0,1,.133-.142l.07-.059a.674.674,0,0,1,.1-.066C1050.179,576.5,1050.209,576.478,1050.241,576.461Z" transform="translate(-1049.636 -576.317)" fill="#1b2f33"/>
          </g>
          <g id="Group_77" data-name="Group 77" transform="translate(12.128 1.503)">
            <path id="Path_61" data-name="Path 61" d="M1083.686,563.252c-.051.006-.105.014-.162.024s-.115.023-.176.032-.122.027-.183.045-.124.033-.183.058c-.03.011-.061.02-.09.032l-.087.038a1.728,1.728,0,0,0-.167.081,1.592,1.592,0,0,0-.152.089,1.047,1.047,0,0,0-.134.089c-.04.03-.083.053-.115.081s-.062.05-.086.069c-.05.038-.082.059-.082.059s.01-.035.034-.094c.012-.03.027-.066.047-.107a.926.926,0,0,1,.08-.128.814.814,0,0,1,.113-.14,1.023,1.023,0,0,1,.151-.137,1.13,1.13,0,0,1,.183-.119c.033-.017.067-.035.1-.051s.07-.027.106-.04a1.338,1.338,0,0,1,.218-.058,1.642,1.642,0,0,1,.214-.025,1.671,1.671,0,0,1,.2.006,1.29,1.29,0,0,1,.177.027,1.348,1.348,0,0,1,.145.04,1.05,1.05,0,0,1,.107.043.571.571,0,0,1,.089.048l-.1.009C1083.875,563.229,1083.787,563.238,1083.686,563.252Z" transform="translate(-1082.07 -563.049)" fill="#1b2f33"/>
          </g>
          <g id="Group_78" data-name="Group 78" transform="translate(14.833 0.773)">
            <path id="Path_62" data-name="Path 62" d="M1118.811,553.849c-.062.005-.128.016-.2.023l-.206.029c-.069.014-.14.02-.209.037s-.139.027-.207.044l-.1.023c-.033.01-.065.02-.1.028l-.1.026-.089.03a1.582,1.582,0,0,0-.166.057l-.143.052c-.041.019-.078.034-.109.047-.062.025-.1.038-.1.038s.021-.033.064-.087c.021-.027.047-.06.08-.1s.074-.07.119-.109c.023-.019.046-.04.072-.059l.084-.054.089-.056c.031-.018.066-.031.1-.048a1.36,1.36,0,0,1,.214-.084,1.639,1.639,0,0,1,.23-.059,2.041,2.041,0,0,1,.234-.031c.078-.005.154-.006.228,0a2.121,2.121,0,0,1,.211.019,1.7,1.7,0,0,1,.186.036,1.565,1.565,0,0,1,.27.092.7.7,0,0,1,.1.05l-.379.038C1118.933,553.835,1118.874,553.841,1118.811,553.849Z" transform="translate(-1117.091 -553.595)" fill="#1b2f33"/>
          </g>
          <g id="Group_79" data-name="Group 79" transform="translate(17.823 0.567)">
            <path id="Path_63" data-name="Path 63" d="M1156.822,551.215l-.188.01c-.061.007-.123.006-.182.013s-.117.007-.17.016-.106.01-.154.018-.092.013-.132.018-.074.014-.1.019c-.058.01-.094.014-.094.014s.023-.025.069-.065a.829.829,0,0,1,.087-.068c.035-.023.076-.048.122-.074a1.455,1.455,0,0,1,.154-.069,1.47,1.47,0,0,1,.179-.057,1.788,1.788,0,0,1,.2-.039c.064-.01.129-.013.194-.018h.01a2.29,2.29,0,0,1,.4.021,2.058,2.058,0,0,1,.34.076,1.75,1.75,0,0,1,.231.092.712.712,0,0,1,.083.046l-.095.009-.19.013-.052,0C1157.332,551.2,1157.075,551.2,1156.822,551.215Z" transform="translate(-1155.8 -550.931)" fill="#1b2f33"/>
          </g>
          <g id="Group_80" data-name="Group 80" transform="translate(19.911 4.807)">
            <path id="Path_64" data-name="Path 64" d="M1183.26,606.83l.068-.035c.048-.022.091-.055.14-.084s.092-.067.135-.105a1.615,1.615,0,0,0,.126-.122,1.586,1.586,0,0,0,.113-.13l.1-.131.079-.125c.052-.077.08-.149.107-.2l.039-.077-.02.083a2.07,2.07,0,0,1-.057.221l-.047.147-.067.16c-.022.057-.056.11-.085.167a1.718,1.718,0,0,1-.1.167c-.037.055-.081.106-.122.159s-.089.1-.139.14l-.072.064-.068.05-.006.005a1.7,1.7,0,0,1-.145.093,1.471,1.471,0,0,1-.245.109c-.033.01-.058.018-.083.023l-.029.006-.043-.489h.015a.178.178,0,0,0,.04,0,1,1,0,0,0,.181-.03l.013,0a.955.955,0,0,0,.11-.037Z" transform="translate(-1182.833 -605.824)" fill="#1b2f33"/>
          </g>
          <g id="Group_81" data-name="Group 81" transform="translate(17.226 7.886)">
            <path id="Path_65" data-name="Path 65" d="M1149.7,646.714a1.034,1.034,0,0,0,.059.124,2.357,2.357,0,0,0,.148.251c.028.042.054.085.084.127l.095.122a2.918,2.918,0,0,0,.2.237c.035.038.068.078.1.114l.108.1c.071.068.138.139.209.2l.2.168c.06.054.121.095.172.135l.135.1.118.089-.131-.067-.151-.078c-.058-.031-.126-.062-.195-.1l-.226-.133c-.082-.045-.161-.1-.246-.162l-.129-.088c-.043-.031-.084-.066-.127-.1a3.107,3.107,0,0,1-.253-.212l-.123-.113c-.041-.039-.077-.081-.115-.121a2.787,2.787,0,0,1-.213-.251,1.433,1.433,0,0,1-.093-.13l0,0a3.806,3.806,0,0,0,.63,1.313s-.935-1.075-1.487-1.821a2.089,2.089,0,0,1-.393-.66c0-.154.639-.013,1.183.179l.293.03s0,.018,0,.021a.114.114,0,0,0,0,.026c0,.009,0,.019,0,.031.438.183.689.372.216.388a.727.727,0,0,0-.156.021c.006.019.011.038.017.058l.03.088C1149.663,646.634,1149.683,646.673,1149.7,646.714Z" transform="translate(-1148.075 -645.686)" fill="#1b2f33"/>
          </g>
          <g id="Group_82" data-name="Group 82" transform="translate(19.295 7.092)">
            <path id="Path_66" data-name="Path 66" d="M1176.065,635.851a1.236,1.236,0,0,0,.138.049,2.674,2.674,0,0,0,.3.078c.053.011.105.024.159.033l.164.022a3.174,3.174,0,0,0,.331.03c.055,0,.11.007.164.009h.161c.105,0,.209,0,.306-.007l.275-.02c.086,0,.163-.017.233-.026l.179-.023.157-.021-.15.05-.172.057c-.067.021-.142.049-.226.069l-.272.071c-.1.029-.2.044-.308.067l-.164.032c-.056.009-.113.015-.17.023a3.351,3.351,0,0,1-.352.034l-.179.01c-.06,0-.12,0-.179,0a3.159,3.159,0,0,1-.352-.024l-.056-.007-.113-.019c-.055-.011-.11-.018-.163-.032a2.589,2.589,0,0,1-.3-.089,2.087,2.087,0,0,1-.25-.107,1.9,1.9,0,0,1-.19-.112c-.026-.016-.049-.035-.07-.051a.68.68,0,0,1-.056-.046l-.044-.042.521-.45a.148.148,0,0,1,.012.018.088.088,0,0,0,.016.021.334.334,0,0,0,.032.035,1.193,1.193,0,0,0,.107.1,1.574,1.574,0,0,0,.165.111,1.837,1.837,0,0,0,.2.106l.016.008C1175.977,635.819,1176.021,635.833,1176.065,635.851Z" transform="translate(-1174.867 -635.406)" fill="#1b2f33"/>
          </g>
          <g id="Group_83" data-name="Group 83" transform="translate(16.985 0.594)">
            <path id="Path_67" data-name="Path 67" d="M1146.966,554.494a1,1,0,0,1,.036.1l.022.081c.015.056.03.115.042.177a1.3,1.3,0,0,1,.021.405.959.959,0,0,1-.056.216.77.77,0,0,1-.116.195.949.949,0,0,1-.341.253,1.61,1.61,0,0,1-.365.114,2.782,2.782,0,0,1-.342.044c-.108.006-.21.01-.3.007a2.522,2.522,0,0,1-.255-.021c-.076-.011-.141-.021-.194-.033a1.717,1.717,0,0,1-.167-.044,1.685,1.685,0,0,1,.169-.028l.192-.023c.074-.007.157-.019.247-.026s.187-.019.287-.036a2.5,2.5,0,0,0,.31-.068,1.319,1.319,0,0,0,.3-.123.663.663,0,0,0,.225-.2.607.607,0,0,0,.062-.124.638.638,0,0,0,.026-.138.975.975,0,0,0-.036-.3c-.013-.05-.029-.1-.046-.149l-.026-.075c-.007-.017-.014-.034-.023-.051a.652.652,0,0,0-.142-.178,1.389,1.389,0,0,0-.323-.21c-.035-.017-.062-.028-.083-.037l-.017-.008-.033-.013.082-.226-.182.058s-.01-.042-.029-.116c0-.019-.01-.039-.014-.061-.016-.071-.035-.157-.056-.255-.051-.256-.119-.6-.188-.937s-.141-.677-.2-.927c-.043-.176-.081-.307-.1-.371-.009-.027-.013-.043-.013-.043l.13-.05s.023.05.059.135c.029.069.067.161.109.271.1.245.211.574.322.9l.3.9c.037.11.07.2.095.265l.008.023.043.11-.068.022.008,0a1.815,1.815,0,0,1,.271.169,1.6,1.6,0,0,1,.138.118A.985.985,0,0,1,1146.966,554.494Z" transform="translate(-1144.949 -551.277)" fill="#1b2f33"/>
          </g>
          <g id="Group_84" data-name="Group 84" transform="translate(9.691 6.37)">
            <path id="Path_68" data-name="Path 68" d="M1051.291,627.206a2.487,2.487,0,0,1-.211-.2,3.02,3.02,0,0,1-.56-.888l.268-.056s0,.01,0,.027,0,.041.007.075c.007.067.018.164.035.281,0,.031.01.063.015.1l.832.747,4.315.827c-.121.032-.3.089-.52.159a21.925,21.925,0,0,1-2.368.649c-.214-.023-.424-.053-.621-.088-.263-.051-.5-.1-.708-.164-.071-.019-.135-.038-.2-.057l.867-.118a.982.982,0,0,0,.066-.249.513.513,0,0,0-.423-.583,2.483,2.483,0,0,1-.486-.227A2.38,2.38,0,0,1,1051.291,627.206Z" transform="translate(-1050.521 -626.058)" fill="#1b2f33"/>
          </g>
          <g id="Group_85" data-name="Group 85" transform="translate(9.932 8.992)">
            <path id="Path_69" data-name="Path 69" d="M1053.8,660.532l-.022.034-.058-.451a.826.826,0,0,1-.074-.068l.289-.039Z" transform="translate(-1053.647 -660.009)" fill="#1b2f33"/>
          </g>
          <g id="Group_86" data-name="Group 86" transform="translate(16.381 3.561)">
            <path id="Path_70" data-name="Path 70" d="M1137.367,590.11c-.011.036-.018.074-.027.115a1.14,1.14,0,0,0-.014.126l0,.066,0,.067a1.014,1.014,0,0,0,.015.133c.006.044.022.085.032.127s.03.079.043.116a.774.774,0,0,0,.051.1.7.7,0,0,0,.048.083l.043.06.038.054-.047-.045-.055-.052a.7.7,0,0,1-.065-.074.763.763,0,0,1-.072-.093c-.022-.036-.049-.071-.07-.113a1.229,1.229,0,0,1-.061-.13,1.09,1.09,0,0,1-.046-.142l-.018-.074-.011-.075a1.219,1.219,0,0,1-.012-.147c0-.048,0-.095,0-.139,0-.021.005-.039.007-.059s0-.045.008-.065a1.238,1.238,0,0,1,.044-.185c.006-.022.013-.041.019-.055l.007-.018.262.135-.009.013-.019.033-.008.015a.968.968,0,0,0-.056.125C1137.388,590.04,1137.378,590.073,1137.367,590.11Z" transform="translate(-1137.14 -589.689)" fill="#1b2f33"/>
          </g>
          <g id="Group_87" data-name="Group 87">
            <path id="Path_71" data-name="Path 71" d="M1794.811,455.983c.032-.5.366-1.112,1.729-1.934a2.6,2.6,0,0,1,3.064.261c.856.644,2.043.528,3.757.276l.654-.1c.016.044.034.088.052.133l.27-.056s0,.01,0,.027,0,.041.006.075c.006.067.018.165.034.282,0,.031.009.063.014.1l.834.751,4.333.839c-.122.032-.3.089-.522.158.121-.019.239-.046.354-.073a3.278,3.278,0,0,1,.63-.1,2.978,2.978,0,0,1,.754.093,3.344,3.344,0,0,0,.631.093q.324.008.617.024a2.1,2.1,0,0,1-.393-.663c0-.155.642-.012,1.188.182l.294.031a.212.212,0,0,1,0,.021.128.128,0,0,0,0,.026c0,.009,0,.02,0,.032.439.185.691.374.216.39a.731.731,0,0,0-.156.021c.005.019.011.038.017.058a8.521,8.521,0,0,1,1.936.4l.774.313-.552-.626a2.275,2.275,0,0,1-.442-.757l-.113-.019c-.055-.011-.111-.018-.164-.032a2.622,2.622,0,0,1-.3-.09,2.082,2.082,0,0,1-.25-.107,1.888,1.888,0,0,1-.19-.113c-.026-.017-.049-.035-.07-.051a.693.693,0,0,1-.056-.047l-.044-.042.524-.451a.14.14,0,0,1,.012.018.088.088,0,0,0,.016.021.359.359,0,0,0,.032.035,1.237,1.237,0,0,0,.107.1,1.6,1.6,0,0,0,.166.112,1.876,1.876,0,0,0,.2.106,3.426,3.426,0,0,1,.115-1.32l-.006.005a1.688,1.688,0,0,1-.146.093,1.476,1.476,0,0,1-.246.109c-.034.01-.058.018-.084.022l-.03.006-.042-.492h.015a.18.18,0,0,0,.04,0,1,1,0,0,0,.182-.03l.013,0c-.211.013-.747.051-1.957.156a1.888,1.888,0,0,1-1.593-.564,1.651,1.651,0,0,1-.506-1.142.592.592,0,0,1,.276-.459c0-.022,0-.045.008-.065a1.208,1.208,0,0,1,.045-.186c.007-.022.013-.041.019-.055l.007-.018.263.136-.009.013-.02.033-.008.015a5.353,5.353,0,0,1,.756-.12c.224-.025.452-.05.677-.093l-.017-.008-.033-.013.082-.227-.183.058s-.01-.043-.029-.117c0-.019-.01-.039-.014-.061-.174.029-.352.048-.528.068-.69.077-1.4.157-1.626.8.027-.006.055-.011.082-.015,0,0-.068,1.417.638,1.8a6.89,6.89,0,0,0,2.236.455,2.889,2.889,0,0,1-3.062.447l-.11.017s0-.023-.008-.067l-.032-.013a1.692,1.692,0,0,1-2.3.337l-.033-.024c0,.016.007.033.01.049.025.112.043.207.058.285.03.156.047.245.047.245l-.585.089s-.011-.091-.029-.248c0-.04-.01-.084-.015-.131a1.317,1.317,0,0,1-.606.2,1.612,1.612,0,0,1-1.166-.476c-1.138-1-1.278-3.07-1.295-3.479.013-.041.026-.081.04-.119-.035.031-.058.05-.058.05s.006-.034.022-.093c.009-.029.018-.066.033-.106a.919.919,0,0,1,.063-.13l.042-.073a.852.852,0,0,1,.054-.071.892.892,0,0,1,.134-.142l.07-.059a1.812,1.812,0,0,1,1.376-.587c.043,0,.08,0,.11,0l-.049-.174.16-.051.052.143a3.187,3.187,0,0,1,2.428-.927c.047,0,.1,0,.144,0l-.038-.174.164-.038.052.179a3.647,3.647,0,0,1,2.03-.6,3.832,3.832,0,0,1,.953.124l-.013-.043.13-.05s.023.05.059.135a2.44,2.44,0,0,1,1.268-.158h.01a2.314,2.314,0,0,1,.4.022,2.079,2.079,0,0,1,.341.077,1.753,1.753,0,0,1,.231.093.679.679,0,0,1,.083.046l-.095.008-.19.012a3.57,3.57,0,0,1,1.475,1.708,8.982,8.982,0,0,0-2.658.534l-.039.012.008.023c.028.071.043.111.043.111l-.068.022.008,0a1.835,1.835,0,0,1,.272.171,6.874,6.874,0,0,1,2.9-.458c.468.265,1.326,1.143,1.859,4.051.763,4.16-.051,4.036-1.93,5.957a3.241,3.241,0,0,0-.688,1.228,1.161,1.161,0,0,1-.084.364,1.691,1.691,0,0,1-.09.247c-.6,2.286-7.229,1.45-7.229,1.45l-2.661-4.011-.679-2.4c.051.022.112.049.182.077s.141.055.22.083a5.347,5.347,0,0,0,.55.161,5.131,5.131,0,0,0,.786.12c.215.016.357.014.357.014s-.14-.029-.343-.09a4.97,4.97,0,0,1-.719-.277c-.069-.033-.137-.068-.2-.1.207.011.438.014.683.011.29-.008.6-.032.9-.069s.6-.1.881-.161.531-.138.745-.212c.107-.034.2-.07.29-.1s.16-.06.219-.086l.189-.079-.2.038c-.063.013-.141.025-.231.038s-.19.029-.3.04c-.219.028-.477.044-.751.053s-.566,0-.854-.024l-.215-.021c-.215-.023-.425-.054-.623-.09-.264-.052-.507-.106-.711-.166-.071-.019-.136-.039-.2-.058l.871-.117a.977.977,0,0,0,.066-.25l-.417.051-1.555.184c-.481.059-.925.1-1.311.16a5.861,5.861,0,0,0-.985.235,2.592,2.592,0,0,0-.59.276.777.777,0,0,0-.177.148.778.778,0,0,1,.17-.158,2.446,2.446,0,0,1,.581-.31,5.953,5.953,0,0,1,.985-.281c.39-.079.829-.138,1.309-.21l1.549-.228.435-.062a.559.559,0,0,0-.416-.391,2.484,2.484,0,0,1-.488-.228,26.9,26.9,0,0,1-4.494.049c0-.015-.008-.029-.011-.043a1.938,1.938,0,0,0-.063-.2,1.773,1.773,0,0,0-.187-.358,2.333,2.333,0,0,0-.521-.545,3.414,3.414,0,0,0-.579-.354,4.541,4.541,0,0,0-.551-.222,4.647,4.647,0,0,0-.48-.129c-.143-.033-.27-.053-.375-.067a2.882,2.882,0,0,0-.33-.029s.112.046.3.129c.1.042.21.1.34.155s.273.134.426.217.315.176.478.284a3.873,3.873,0,0,1,.48.365,2.206,2.206,0,0,1,.4.463,1.565,1.565,0,0,1,.133.268,1.239,1.239,0,0,1,.044.142l.043.169a5.575,5.575,0,0,1,.123.659,3.049,3.049,0,0,1,.012.631,2.741,2.741,0,0,1-.121.578,3.772,3.772,0,0,1-.213.5c-.079.153-.157.293-.233.414s-.143.228-.2.315l-.111.168a2.091,2.091,0,0,1-.949.348,3.911,3.911,0,0,1-2.275-.206l2-.955.032-.053a2.713,2.713,0,0,0,.074-2.3c-.421-1.115-1.241-1.3-1.616-1.236l-.027,0Zm9.784,1.219-.136.525-.021.034-.058-.453a.843.843,0,0,1-.074-.068Zm13.726-2.09s0-.006,0-.009c-.008-.044-.017-.086-.025-.129.432-.051.831-.1,1.188-.134.2-.021.377-.046.551-.055a2.7,2.7,0,0,1,1.111.179c.142.053.215.088.215.088s-.075-.03-.22-.075a3,3,0,0,0-.639-.125,2.755,2.755,0,0,0-.462,0c-.167.016-.349.049-.544.079C1819.143,454.988,1818.748,455.049,1818.321,455.112Zm3.372-.595a4.693,4.693,0,0,1-.365-.591,6.482,6.482,0,0,1-.289-.643,3.4,3.4,0,0,1-.184-.637,2.193,2.193,0,0,1-.027-.6,2.35,2.35,0,0,1,.12-.541,3.787,3.787,0,0,1,.19-.45c.032-.066.066-.128.1-.184s.06-.11.087-.156l.175-.295-.07.057c-.045.038-.111.094-.19.171a3.2,3.2,0,0,0-.272.294,2.818,2.818,0,0,0-.3.436,2.257,2.257,0,0,0-.229.6,2.28,2.28,0,0,0-.039.73,3.2,3.2,0,0,0,.121.577q-1.286.308-2.475.573c-.016-.06-.033-.118-.049-.176l.067-.016.732-.183-.745.118-.073.012a9.751,9.751,0,0,0-.352-1.022l.242-.031a3.325,3.325,0,0,0,2.842-1.594,2.428,2.428,0,0,1,1.363-1.124,2.594,2.594,0,0,1,2.291.022l-1.838,1.02-.026.074a2.712,2.712,0,0,0,.183,2.068,1.9,1.9,0,0,0,1.8.935l.035,0,1.623-.768a3.09,3.09,0,0,1-1.581,2.038,3,3,0,0,1-.378.157c-.04.011-.087.022-.139.035a2.756,2.756,0,0,1-.377.058,2.271,2.271,0,0,1-.481-.011,1.94,1.94,0,0,1-.532-.145,2.113,2.113,0,0,1-.514-.323,2.566,2.566,0,0,1-.233-.223l-.11-.125Zm-27.285,1.812.037.279,2.373-1.079c.129-.008.77,0,1.136.974a2.359,2.359,0,0,1-.013,1.88l-2.447,1.169.172.206c.027.034.7.813,2.9.522a2.806,2.806,0,0,0,2.05-1.41,2.821,2.821,0,0,1,2.141-1.423l.171-.023.07-.009.128-.017.048-.006.142-.019.067-.009.128-.017.1-.013.362-.048a30.7,30.7,0,0,0,1.009,3.428,16.925,16.925,0,0,1,1.337,5.319,4.344,4.344,0,0,1-.254,1.663c-.156.337-.3.533-.929.953-.673.449-5.673.361-5.77.526-.16.272,7.893,5.022,10.36,6.236.085.042.309.116.472.178.119.046.195-.007.3-.056.393-.184,1.118-.646,1.267-.733,2.949-1.746,9.781-5.742,9.632-5.611a21.42,21.42,0,0,1-2.277.011c-1.915-.1-4.707.075-4.691-1.041a12.8,12.8,0,0,1,1.828-6.665c.281-.288.544-.533.774-.75a4.268,4.268,0,0,0,1.437-1.957,7.921,7.921,0,0,0-.1-3.429l.1-.014.334-.046a4.654,4.654,0,0,1,3.241.378,3.08,3.08,0,0,0,2.706-.075,3.594,3.594,0,0,0,1.891-2.746l.063-.392-2.3,1.085a1.469,1.469,0,0,1-1.362-.722,2.317,2.317,0,0,1-.178-1.656l2.169-1.2-.149-.192c-.033-.043-.839-1.046-2.953-.328a2.806,2.806,0,0,0-1.573,1.283,2.913,2.913,0,0,1-2.549,1.416l-.37.047a4.466,4.466,0,0,0-.619-.968,2.1,2.1,0,0,0-.825-.616c-.939-2.052-2.325-2.368-3.083-2.369a2.968,2.968,0,0,0-.97.159,4.342,4.342,0,0,0-1.093-.143,4.19,4.19,0,0,0-2.227.636l-.126,0a3.741,3.741,0,0,0-2.713,1,2.308,2.308,0,0,0-1.658.67,3.206,3.206,0,0,0-.743,2.418c.011.368.041.759.084,1.165l-.171.025c-1.842.27-2.777.306-3.445-.2a3.04,3.04,0,0,0-3.53-.285C1794.854,454.578,1794.281,455.367,1794.408,456.329Z" transform="translate(-1794.391 -448.241)" fill="#1b2f33"/>
          </g>
        </g>
        <g id="Group_89" data-name="Group 89" transform="translate(30.99 18.81)">
          <path id="Path_72" data-name="Path 72" d="M1290.735,613.859a2.612,2.612,0,0,0,.28-.042,3.009,3.009,0,0,0,.3-.074l.158-.049c.052-.017.105-.039.159-.058a3.151,3.151,0,0,0,.309-.142,2.979,2.979,0,0,0,.286-.18c.091-.065.176-.136.257-.207.041-.036.079-.074.117-.109s.073-.073.109-.109l.1-.107c.03-.036.062-.07.092-.1l.158-.185.121-.145c.066-.082.108-.127.108-.127s-.02.057-.062.155c-.02.05-.049.107-.081.174s-.074.139-.121.218c-.025.039-.049.08-.076.121l-.089.125c-.032.042-.065.086-.1.129s-.074.085-.115.127a2.283,2.283,0,0,1-.269.241,2.109,2.109,0,0,1-.32.2,2.214,2.214,0,0,1-.346.141,3.193,3.193,0,0,1-.346.09,3.127,3.127,0,0,1-.331.044,2.658,2.658,0,0,1-.3,0,1.994,1.994,0,0,1-.437-.07,1.038,1.038,0,0,1-.157-.056A2.5,2.5,0,0,0,1290.735,613.859Z" transform="translate(-1290.144 -612.223)" fill="#1b2f33"/>
        </g>
        <g id="Group_90" data-name="Group 90" transform="translate(5.197 24.693)">
          <path id="Path_73" data-name="Path 73" d="M958.327,688.487c.057-.014.11-.025.158-.035s.088-.024.121-.033c.068-.018.108-.027.108-.027s-.033.022-.095.058c-.031.017-.067.041-.112.062s-.1.044-.153.067-.119.043-.186.065a2.163,2.163,0,0,1-.212.056c-.074.018-.152.03-.231.043s-.16.019-.241.028-.161.008-.241.011-.158,0-.233,0-.149-.008-.218-.015-.134-.015-.193-.024a2.459,2.459,0,0,1-.395-.087l.4-.008.192-.005.214-.007c.074,0,.15-.009.228-.011s.156-.01.234-.016.158-.012.234-.022.153-.014.225-.028.144-.018.209-.033S958.269,688.5,958.327,688.487Z" transform="translate(-956.203 -688.392)" fill="#1b2f33"/>
        </g>
        <g id="Group_91" data-name="Group 91" transform="translate(9.861 20.823)">
          <path id="Path_74" data-name="Path 74" d="M1019.975,638.492h-.022l-.639.034c-.409.02-.785.033-1.118.04l-.466.009h-.4c-.239,0-.427,0-.555-.008l-.2-.007.2-.011c.127-.007.315-.023.553-.039s.527-.042.858-.07c.165-.013.342-.031.527-.048s.381-.033.584-.055l.463-.049A2.472,2.472,0,0,0,1019.975,638.492Z" transform="translate(-1016.583 -638.289)" fill="#1b2f33"/>
        </g>
      </g>
      <g id="Group_96" data-name="Group 96" transform="matrix(1, 0, 0, 1, 45.367, 12.904)">
        <g id="Group_93" data-name="Group 93" transform="translate(0.884 0)">
          <path id="Path_75" data-name="Path 75" d="M4.048,7.578l-1,4.533H0L2.666,0H5.711L4.723,4.534H6.3L7.284,0h3.045L9.361,4.534,7.475,6.108l1.194,1.47L7.58,12.111H4.535L5.606,7.578Z" transform="translate(0 0)" fill="#1b2f33"/>
          <path id="Path_76" data-name="Path 76" d="M5.814,0,3.045,12.111H0L2.752,0Z" transform="translate(8.842 0)" fill="#1b2f33"/>
          <path id="Path_77" data-name="Path 77" d="M4.134,7.6,3.043,12.111H0L2.749,0H8.857l1.176,1.488L9.359,4.534,7.473,6.108,8.666,7.6l-.955,4.518-1.606,0H4.618L5.6,7.6Zm.986-4.55L4.826,4.534H6.3l.4-1.488Z" transform="translate(12.995 0)" fill="#1b2f33"/>
          <path id="Path_78" data-name="Path 78" d="M5.814,0,3.045,12.111H0L2.752,0Z" transform="translate(21.714 0)" fill="#1b2f33"/>
          <path id="Path_79" data-name="Path 79" d="M6.577,3.063H5.1L3.045,12.111H0L2.355,1.471,4.222,0H8.859l1.176,1.471L7.58,12.111H4.535Z" transform="translate(26.039 0)" fill="#1b2f33"/>
          <path id="Path_80" data-name="Path 80" d="M.692,0H3.737L3.253,2.059l.484,1.194,1-1.194L5.207,0H8.252L7.578,3.045,4.533,6.385,3.253,12.111H.173l1.3-5.727L0,3.045Z" transform="translate(36.94 0)" fill="#1b2f33"/>
          <path id="Path_81" data-name="Path 81" d="M3.045,12.111H0L2.353,1.471,4.327,0H8.859l1.176,1.471-2.37,10.64H4.62l.692-3.062H3.737ZM6,6.108l.589-3.045H5.122L4.43,6.108Z" transform="translate(43.705 0)" fill="#1b2f33"/>
          <path id="Path_82" data-name="Path 82" d="M0,10.641,2.057,1.454,3.926,0H8.458L9.652,1.454,8.945,4.516H5.917L6.3,3.063H4.721l-1.279,6H4.929l.3-1.471h-.71l.329-1.5H8.666L7.7,10.641l-1.869,1.47H1.174Z" transform="translate(52.599 0)" fill="#1b2f33"/>
          <path id="Path_83" data-name="Path 83" d="M3.045,12.111H0L2.353,1.471,4.327,0H8.859l1.176,1.471-2.37,10.64H4.62l.692-3.062H3.737Zm2.96-6,.587-3.045H5.122L4.43,6.108Z" transform="translate(61.11 0)" fill="#1b2f33"/>
        </g>
        <g id="Group_94" data-name="Group 94" transform="translate(0 15.268)">
          <text id="ONLINE_STORES" data-name="ONLINE STORES" transform="translate(0 6)" fill="#1b2f33" font-size="8" font-family="Commando"><tspan x="0" y="0">ONLINE STORES</tspan></text>
        </g>
      </g>
    </g>
  </g>
</svg>
