<svg id="Group_260" data-name="Group 260" xmlns="http://www.w3.org/2000/svg" xmlns:xlink="http://www.w3.org/1999/xlink" width="515" height="150" viewBox="0 0 515 150">
  <defs>
    <clipPath id="clip-path">
      <rect id="Rectangle_72" data-name="Rectangle 72" width="515" height="150" fill="#ef3054"/>
    </clipPath>
  </defs>
  <g id="Group_259" data-name="Group 259" clip-path="url(#clip-path)">
    <path id="Path_273" data-name="Path 273" d="M398.6,134.736,383.576,149h5.105l6.048-5.762,5.385-5.1L411.547,149h5.2c-5.476-5.287-10.958-10.58-16.531-15.775a11.749,11.749,0,0,0-1.609,1.511" fill="#ef3054"/>
    <path id="Path_274" data-name="Path 274" d="M43.678,136.623l27.4-25.89,27.5,25.89,27.406-25.89,27.4,25.89,27.4-25.89,27.4,25.89,27.5-25.89,27.4,25.89,27.406-25.89,27.4,25.89,27.4-25.89,27.5,25.89,21.923-20.787,5.385-5.1,27.4,25.89,27.4-25.89,27.4,25.89,27.4-25.89L515,115.71v-4.892l-5.267-5-27.4,25.984-27.4-25.984-27.4,25.984c-9.259-8.692-18.237-17.389-27.306-25.984-.567.47-1.14,1.036-1.609,1.512l-25.8,24.472-27.5-25.984-27.4,25.984-27.4-25.984L263.1,131.807l-27.4-25.984-27.5,25.984-27.4-25.984-27.4,25.984-27.4-25.984L98.578,131.807l-27.5-25.984-27.4,25.984-27.4-25.984L0,121.253v4.854l16.274-15.374Z" fill="#ef3054"/>
    <path id="Path_275" data-name="Path 275" d="M43.678,54.517l27.4-25.981,27.5,25.981,27.406-25.981,27.4,25.981,27.4-25.981,27.4,25.981,27.5-25.981,27.4,25.981L290.5,28.536l27.4,25.981,27.4-25.981,27.5,25.981L394.73,33.731l5.385-5.1,27.4,25.891,27.4-25.981,27.4,25.981,27.4-25.981L515,33.53V28.693l-5.267-4.976L482.328,49.6l-27.4-25.886L427.519,49.6c-9.259-8.692-18.237-17.291-27.306-25.886a11.755,11.755,0,0,0-1.609,1.512L372.807,49.6l-27.5-25.886L317.9,49.6,290.5,23.717,263.1,49.6l-27.4-25.886L208.194,49.6l-27.4-25.886L153.388,49.6l-27.4-25.886L98.578,49.6l-27.5-25.886L43.678,49.6l-27.4-25.886L0,39.089v4.875L16.274,28.536Z" fill="#ef3054"/>
    <path id="Path_276" data-name="Path 276" d="M43.678,27.115l27.4-25.891,27.5,25.891L125.984,1.224l27.4,25.891,27.4-25.891,27.4,25.891,27.5-25.891,27.4,25.891L290.5,1.224l27.4,25.891,27.4-25.891,27.5,25.891L394.73,6.329l5.385-5.105,27.4,25.891,27.4-25.891,27.4,25.891,27.4-25.891L515,6.2V1.292L513.633,0h-7.8L482.328,22.2,458.823,0h-7.8l-23.5,22.2C419.58,14.832,411.845,7.391,404.084,0H396.3l-23.5,22.2L349.22,0h-7.814L317.9,22.2,294.4,0h-7.8L263.1,22.2,239.592,0h-7.813L208.194,22.2,184.692,0h-7.8l-23.5,22.2L129.884,0h-7.8L98.578,22.2,74.993,0H67.18l-23.5,22.2L20.174,0h-7.8L0,11.687V16.6L16.274,1.224Z" fill="#ef3054"/>
    <path id="Path_277" data-name="Path 277" d="M493.1,149h5.2l11.44-10.957L515,143.051v-4.828l-5.267-5Z" fill="#ef3054"/>
    <path id="Path_278" data-name="Path 278" d="M16.273,138.043,27.8,149h5.1L16.273,133.226,0,148.66V149H4.742Z" fill="#ef3054"/>
    <path id="Path_279" data-name="Path 279" d="M54.45,149h5.2l11.433-10.957L82.607,149h5.2L71.079,133.226Z" fill="#ef3054"/>
    <path id="Path_280" data-name="Path 280" d="M43.678,109.222l27.4-25.884,27.5,25.884,27.406-25.884,27.4,25.884,27.4-25.884,27.4,25.884,27.5-25.884,27.4,25.983L290.5,83.338l27.4,25.884,27.4-25.884,27.5,25.884L394.73,88.436l5.385-5.006,27.4,25.792,27.4-25.884,27.4,25.884,27.4-25.884,5.267,5V83.417l-5.267-5-27.4,25.984-27.4-25.984-27.4,25.984c-9.259-8.692-18.237-17.292-27.306-25.984-.567.568-1.14,1.042-1.609,1.512l-25.8,24.472-27.5-25.984-27.4,25.984L290.5,78.422,263.1,104.406l-27.4-25.984-27.5,25.984-27.4-25.984-27.4,25.984-27.4-25.984L98.578,104.406l-27.5-25.984-27.4,25.984-27.4-25.984L0,93.852v4.915L16.274,83.338Z" fill="#ef3054"/>
    <path id="Path_281" data-name="Path 281" d="M43.678,81.918l27.4-25.982,27.5,25.982,27.406-25.982,27.4,25.982,27.4-25.982,27.4,25.982,27.5-25.982,27.4,25.982L290.5,55.936l27.4,25.982,27.4-25.982,27.5,25.982L394.73,61.131l5.385-5.1,27.4,25.89,27.4-25.982,27.4,25.982,27.4-25.982L515,60.931V56.016l-5.267-4.994L482.328,77l-27.4-25.982L427.519,77c-9.259-8.691-18.237-17.291-27.306-25.982-.567.566-1.14,1.041-1.609,1.608L372.807,77l-27.5-25.982L317.9,77,290.5,51.022,263.1,77l-27.4-25.982L208.194,77l-27.4-25.982L153.388,77l-27.4-25.982L98.578,77l-27.5-25.982L43.678,77l-27.4-25.982L0,66.451v4.914L16.274,55.936Z" fill="#ef3054"/>
  </g>
</svg>
