<svg xmlns="http://www.w3.org/2000/svg" xmlns:xlink="http://www.w3.org/1999/xlink" width="423.677" height="16.364" viewBox="0 0 423.677 16.364">
  <defs>
    <clipPath id="clip-path">
      <rect id="Rectangle_75" data-name="Rectangle 75" width="423.677" height="16.364" fill="#cbeef3"/>
    </clipPath>
  </defs>
  <g id="Group_268" data-name="Group 268" clip-path="url(#clip-path)">
    <path id="Path_284" data-name="Path 284" d="M110.2,13.762h0L95.686.052,81.173,13.762,66.66,0,52.147,13.762,37.585.052,23.071,13.762,8.558.052,0,8.157v2.553L8.558,2.6,23.071,16.364,37.585,2.6,52.147,16.364,66.66,2.6,81.173,16.364,95.686,2.6,110.2,16.364,124.761,2.6l14.514,13.762L153.788,2.6,168.3,16.364,182.813,2.6l14.563,13.762L211.889,2.6,226.4,16.364,240.914,2.6l14.514,13.762L269.991,2.6l13.662,12.96c.248.25.552.5.853.8,4.8-4.6,9.558-9.157,14.461-13.762L313.48,16.364,327.994,2.6l14.513,13.762L357.02,2.6l14.562,13.762L386.1,2.6l14.513,13.762L415.122,2.6l8.555,8.107V8.157l-8.555-8.1L400.608,13.762,386.1.052,371.582,13.762,357.02,0,342.507,13.762,327.994.052,313.48,13.762,298.967.052,284.453,13.711,281.6,11.059,269.991.052,255.427,13.762,240.914.052,226.4,13.762,211.889,0,197.376,13.762,182.813.052,168.3,13.762,153.788.052,139.275,13.762,124.761.052Z" transform="translate(0 0)" fill="#cbeef3"/>
  </g>
</svg>
